<?xml version="1.0" encoding="UTF-8"?>
<!DOCTYPE svg PUBLIC "-//W3C//DTD SVG 1.1//EN" "http://www.w3.org/Graphics/SVG/1.1/DTD/svg11.dtd">
<svg version="1.2" width="122.16mm" height="28.03mm" viewBox="19983 3199 12216 2803" preserveAspectRatio="xMidYMid" fill-rule="evenodd" stroke-width="28.222" stroke-linejoin="round" xmlns="http://www.w3.org/2000/svg" xmlns:ooo="http://xml.openoffice.org/svg/export" xmlns:xlink="http://www.w3.org/1999/xlink" xmlns:presentation="http://sun.com/xmlns/staroffice/presentation" xmlns:smil="http://www.w3.org/2001/SMIL20/" xmlns:anim="urn:oasis:names:tc:opendocument:xmlns:animation:1.0" xmlns:svg="urn:oasis:names:tc:opendocument:xmlns:svg-compatible:1.0" xml:space="preserve">
 <defs class="EmbeddedBulletChars">
  <g id="bullet-char-template-57356" transform="scale(0.00048828125,-0.00048828125)">
   <path d="M 580,1141 L 1163,571 580,0 -4,571 580,1141 Z"/>
  </g>
  <g id="bullet-char-template-57354" transform="scale(0.00048828125,-0.00048828125)">
   <path d="M 8,1128 L 1137,1128 1137,0 8,0 8,1128 Z"/>
  </g>
  <g id="bullet-char-template-10146" transform="scale(0.00048828125,-0.00048828125)">
   <path d="M 174,0 L 602,739 174,1481 1456,739 174,0 Z M 1358,739 L 309,1346 659,739 1358,739 Z"/>
  </g>
  <g id="bullet-char-template-10132" transform="scale(0.00048828125,-0.00048828125)">
   <path d="M 2015,739 L 1276,0 717,0 1260,543 174,543 174,936 1260,936 717,1481 1274,1481 2015,739 Z"/>
  </g>
  <g id="bullet-char-template-10007" transform="scale(0.00048828125,-0.00048828125)">
   <path d="M 0,-2 C -7,14 -16,27 -25,37 L 356,567 C 262,823 215,952 215,954 215,979 228,992 255,992 264,992 276,990 289,987 310,991 331,999 354,1012 L 381,999 492,748 772,1049 836,1024 860,1049 C 881,1039 901,1025 922,1006 886,937 835,863 770,784 769,783 710,716 594,584 L 774,223 C 774,196 753,168 711,139 L 727,119 C 717,90 699,76 672,76 641,76 570,178 457,381 L 164,-76 C 142,-110 111,-127 72,-127 30,-127 9,-110 8,-76 1,-67 -2,-52 -2,-32 -2,-23 -1,-13 0,-2 Z"/>
  </g>
  <g id="bullet-char-template-10004" transform="scale(0.00048828125,-0.00048828125)">
   <path d="M 285,-33 C 182,-33 111,30 74,156 52,228 41,333 41,471 41,549 55,616 82,672 116,743 169,778 240,778 293,778 328,747 346,684 L 369,508 C 377,444 397,411 428,410 L 1163,1116 C 1174,1127 1196,1133 1229,1133 1271,1133 1292,1118 1292,1087 L 1292,965 C 1292,929 1282,901 1262,881 L 442,47 C 390,-6 338,-33 285,-33 Z"/>
  </g>
  <g id="bullet-char-template-9679" transform="scale(0.00048828125,-0.00048828125)">
   <path d="M 813,0 C 632,0 489,54 383,161 276,268 223,411 223,592 223,773 276,916 383,1023 489,1130 632,1184 813,1184 992,1184 1136,1130 1245,1023 1353,916 1407,772 1407,592 1407,412 1353,268 1245,161 1136,54 992,0 813,0 Z"/>
  </g>
  <g id="bullet-char-template-8226" transform="scale(0.00048828125,-0.00048828125)">
   <path d="M 346,457 C 273,457 209,483 155,535 101,586 74,649 74,723 74,796 101,859 155,911 209,963 273,989 346,989 419,989 480,963 531,910 582,859 608,796 608,723 608,648 583,586 532,535 482,483 420,457 346,457 Z"/>
  </g>
  <g id="bullet-char-template-8211" transform="scale(0.00048828125,-0.00048828125)">
   <path d="M -4,459 L 1135,459 1135,606 -4,606 -4,459 Z"/>
  </g>
  <g id="bullet-char-template-61548" transform="scale(0.00048828125,-0.00048828125)">
   <path d="M 173,740 C 173,903 231,1043 346,1159 462,1274 601,1332 765,1332 928,1332 1067,1274 1183,1159 1299,1043 1357,903 1357,740 1357,577 1299,437 1183,322 1067,206 928,148 765,148 601,148 462,206 346,322 231,437 173,577 173,740 Z"/>
  </g>
 </defs>
 <g class="Page">
  <g class="Group">
   <g class="com.sun.star.drawing.ClosedBezierShape">
    <g id="id3">
     <rect class="BoundingBox" stroke="none" fill="none" x="30542" y="3200" width="1657" height="2203"/>
     <path fill="rgb(180,191,212)" stroke="none" d="M 30542,5402 L 30930,3202 32030,3200 C 32065,3200 32098,3209 32125,3227 32153,3244 32174,3270 32186,3300 32198,3331 32201,3365 32195,3401 L 32195,3402 32159,3602 31260,3600 31172,4100 31871,4100 31801,4500 31101,4500 31013,5000 31913,5000 31841,5400 30542,5402 Z"/>
    </g>
   </g>
   <g class="Group">
    <g class="com.sun.star.drawing.ClosedBezierShape">
     <g id="id4">
      <rect class="BoundingBox" stroke="none" fill="none" x="28843" y="3199" width="1808" height="2202"/>
      <path fill="rgb(180,191,212)" stroke="none" d="M 30009,3601 L 30008,3601 30008,3600 29559,3600 29313,5000 29731,5000 C 29741,5001 29749,5000 29759,5000 29803,5000 29851,4990 29893,4968 29935,4946 29973,4915 30001,4877 30030,4839 30049,4796 30057,4752 30110,4452 30175,4080 30216,3852 30224,3808 30220,3764 30204,3726 30188,3688 30163,3657 30129,3635 30095,3613 30053,3601 30009,3601 Z M 30320,5150 C 30263,5226 30188,5289 30104,5333 30021,5377 29930,5400 29842,5400 L 29841,5400 28843,5400 29231,3200 30230,3200 30230,3201 C 30318,3201 30400,3224 30468,3268 30536,3312 30588,3375 30619,3451 30649,3527 30657,3613 30642,3701 L 30642,3702 30434,4878 C 30433,4885 30432,4892 30431,4900 30415,4987 30377,5074 30320,5150 Z"/>
     </g>
    </g>
   </g>
   <g class="Group">
    <g class="com.sun.star.drawing.PolyPolygonShape">
     <g id="id5">
      <rect class="BoundingBox" stroke="none" fill="none" x="21131" y="3200" width="1655" height="2801"/>
      <path fill="rgb(255,255,255)" stroke="none" d="M 22385,5000 L 22385,3900 21619,5000 22385,5000 Z M 22385,6000 L 22385,5400 21131,5400 21131,5002 22385,3200 22780,3200 22785,6000 22385,6000 Z"/>
     </g>
    </g>
    <g class="com.sun.star.drawing.ClosedBezierShape">
     <g id="id6">
      <rect class="BoundingBox" stroke="none" fill="none" x="19983" y="3200" width="2158" height="1601"/>
      <path fill="rgb(255,149,14)" stroke="none" d="M 19985,4200 L 20584,4200 20584,3800 19985,3800 C 19985,3800 19982,3850 19985,3600 19988,3350 20197,3200 20385,3200 20573,3200 21554,3200 22139,3200 21768,3733 21026,4800 21026,4800 L 19985,4800 19985,4200 Z"/>
     </g>
    </g>
    <g class="com.sun.star.drawing.ClosedBezierShape">
     <g id="id7">
      <rect class="BoundingBox" stroke="none" fill="none" x="26784" y="3800" width="1343" height="1602"/>
      <path fill="rgb(255,255,255)" stroke="none" d="M 27286,5000 L 27913,5000 27844,5398 27082,5401 C 27030,5401 26979,5387 26933,5361 26888,5335 26850,5297 26824,5252 26798,5206 26784,5155 26784,5103 L 26784,4098 C 26784,4046 26798,3995 26824,3949 26850,3904 26888,3866 26933,3840 26979,3814 27030,3800 27082,3800 L 28125,3800 28054,4200 27286,4199 C 27268,4199 27251,4204 27235,4213 27219,4222 27207,4234 27198,4250 27189,4266 27184,4283 27184,4301 L 27184,4898 C 27184,4916 27189,4933 27198,4949 27207,4965 27219,4977 27235,4986 27251,4995 27268,5000 27286,5000 Z"/>
     </g>
    </g>
    <g class="com.sun.star.drawing.CustomShape">
     <g id="id8">
      <rect class="BoundingBox" stroke="none" fill="none" x="19985" y="5000" width="947" height="401"/>
      <path fill="rgb(255,149,14)" stroke="none" d="M 20458,5400 L 19985,5400 19985,5000 20931,5000 20931,5400 20458,5400 Z"/>
     </g>
    </g>
    <g class="com.sun.star.drawing.CustomShape">
     <g id="id9">
      <rect class="BoundingBox" stroke="none" fill="none" x="22984" y="3200" width="800" height="401"/>
      <path fill="rgb(255,149,14)" stroke="none" d="M 23384,3600 L 22984,3600 22984,3200 23783,3200 23783,3600 23384,3600 Z"/>
     </g>
    </g>
    <g class="com.sun.star.drawing.CustomShape">
     <g id="id10">
      <rect class="BoundingBox" stroke="none" fill="none" x="24584" y="3200" width="401" height="401"/>
      <path fill="rgb(255,255,255)" stroke="none" d="M 24784,3600 L 24584,3600 24584,3200 24984,3200 24984,3600 24784,3600 Z"/>
     </g>
    </g>
    <g class="com.sun.star.drawing.ClosedBezierShape">
     <g id="id11">
      <rect class="BoundingBox" stroke="none" fill="none" x="24584" y="3800" width="401" height="1602"/>
      <path fill="rgb(255,255,255)" stroke="none" d="M 24684,3827 C 24715,3809 24749,3800 24784,3800 L 24984,3800 24984,5400 C 24984,5400 24791,5401 24785,5401 24749,5401 24715,5392 24684,5374 24654,5357 24628,5331 24611,5301 24593,5270 24584,5236 24584,5201 L 24584,4001 C 24584,3965 24593,3931 24611,3900 24628,3870 24654,3844 24684,3827 Z"/>
     </g>
    </g>
    <g class="com.sun.star.drawing.ClosedBezierShape">
     <g id="id12">
      <rect class="BoundingBox" stroke="none" fill="none" x="25184" y="3799" width="1401" height="1603"/>
      <path fill="rgb(255,255,255)" stroke="none" d="M 26584,5400 C 26584,5400 26493,5401 26485,5401 26432,5401 26380,5387 26334,5361 26289,5334 26251,5296 26224,5251 26198,5205 26184,5153 26184,5101 26184,5100 26184,5400 26184,5400 L 25488,5400 C 25435,5400 25382,5386 25336,5359 25290,5333 25251,5294 25225,5248 25198,5202 25184,5149 25184,5096 L 25184,4103 C 25184,4050 25198,3997 25225,3951 25251,3905 25290,3866 25336,3840 25382,3813 25435,3799 25488,3799 L 26584,3800 26584,5400 Z M 25687,5000 L 26183,5000 26183,4200 25687,4199 C 25669,4199 25651,4204 25636,4213 25620,4222 25607,4235 25598,4251 25589,4266 25584,4284 25584,4302 L 25584,4897 C 25584,4915 25589,4933 25598,4949 25607,4964 25620,4977 25636,4986 25651,4995 25669,5000 25687,5000 Z"/>
     </g>
    </g>
    <g class="com.sun.star.drawing.ClosedBezierShape">
     <g id="id13">
      <rect class="BoundingBox" stroke="none" fill="none" x="19984" y="5600" width="2201" height="401"/>
      <path fill="rgb(255,149,14)" stroke="none" d="M 20183,6000 C 20183,6000 20114,5991 20084,5973 20054,5956 20028,5930 20011,5900 19993,5870 19984,5835 19984,5800 19984,5793 19985,5600 19985,5600 L 22184,5600 22184,6000 20183,6000 Z"/>
     </g>
    </g>
    <g class="com.sun.star.drawing.ClosedBezierShape">
     <g id="id14">
      <rect class="BoundingBox" stroke="none" fill="none" x="25184" y="3200" width="3048" height="401"/>
      <path fill="rgb(255,149,14)" stroke="none" d="M 25184,3600 L 25184,3200 C 25184,3200 27216,3200 28231,3200 28209,3333 28163,3599 28163,3600 L 25184,3600 Z"/>
     </g>
    </g>
    <g class="com.sun.star.drawing.ClosedBezierShape">
     <g id="id15">
      <rect class="BoundingBox" stroke="none" fill="none" x="22984" y="3199" width="1401" height="2203"/>
      <path fill="rgb(255,255,255)" stroke="none" d="M 24384,5400 C 24384,5400 24293,5401 24285,5401 24232,5401 24180,5387 24134,5361 24089,5334 24051,5296 24024,5251 23998,5205 23984,5153 23984,5101 23984,5100 23984,5400 23984,5400 L 23284,5400 C 23231,5400 23180,5386 23134,5360 23088,5333 23051,5296 23024,5250 22998,5204 22984,5153 22984,5100 L 22984,4099 C 22984,4046 22998,3995 23024,3949 23051,3903 23088,3866 23134,3839 23180,3813 23231,3799 23284,3799 L 23984,3800 23984,3200 24384,3200 24384,5400 Z M 23484,5000 L 23983,5000 23983,4200 23484,4199 C 23466,4199 23449,4204 23434,4213 23418,4221 23405,4234 23397,4250 23388,4265 23383,4282 23383,4300 L 23383,4899 C 23383,4917 23388,4934 23397,4950 23405,4965 23418,4978 23434,4986 23449,4995 23466,5000 23484,5000 Z"/>
     </g>
    </g>
    <g class="com.sun.star.drawing.ClosedBezierShape">
     <g id="id16">
      <rect class="BoundingBox" stroke="none" fill="none" x="22984" y="5600" width="8823" height="402"/>
      <path fill="rgb(255,149,14)" stroke="none" d="M 22984,6000 L 22984,5600 C 25850,5600 31746,5601 31806,5601 31795,5661 31772,5796 31771,5801 31765,5836 31749,5870 31727,5901 31704,5931 31674,5957 31640,5974 31607,5992 31571,6001 31535,6001 31529,6001 31522,6001 31516,6000 L 22984,6000 Z"/>
     </g>
    </g>
   </g>
   <g class="Group">
    <g class="com.sun.star.drawing.CustomShape">
     <g id="id17">
      <rect class="BoundingBox" stroke="none" fill="none" x="28243" y="3199" width="790" height="2202"/>
      <path fill="rgb(180,191,212)" stroke="none" d="M 28443,5400 L 28243,5400 28632,3199 29032,3199 28643,5400 28443,5400 Z"/>
     </g>
    </g>
   </g>
  </g>
 </g>
</svg>